<mxfile host="65bd71144e">
    <diagram id="br7zNe9ZE7sb_l7OsdD4" name="Page-1">
        <mxGraphModel dx="2059" dy="1767" grid="1" gridSize="10" guides="1" tooltips="1" connect="1" arrows="1" fold="1" page="1" pageScale="1" pageWidth="827" pageHeight="1169" math="0" shadow="0">
            <root>
                <mxCell id="0"/>
                <mxCell id="1" parent="0"/>
                <mxCell id="23" value="leak" style="rounded=0;whiteSpace=wrap;html=1;fillColor=#f5f5f5;fontColor=#333333;strokeColor=#666666;" parent="1" vertex="1">
                    <mxGeometry x="270" y="170" width="30" height="19.6" as="geometry"/>
                </mxCell>
                <mxCell id="2" value="80 MHz" style="text;html=1;align=center;verticalAlign=middle;resizable=0;points=[];autosize=1;strokeColor=none;fillColor=none;" parent="1" vertex="1">
                    <mxGeometry x="120" y="70" width="60" height="20" as="geometry"/>
                </mxCell>
                <mxCell id="4" value="53 MHz" style="text;html=1;align=center;verticalAlign=middle;resizable=0;points=[];autosize=1;strokeColor=none;fillColor=none;" parent="1" vertex="1">
                    <mxGeometry x="300" y="70" width="60" height="20" as="geometry"/>
                </mxCell>
                <mxCell id="5" value="" style="endArrow=classic;html=1;" parent="1" edge="1">
                    <mxGeometry width="50" height="50" relative="1" as="geometry">
                        <mxPoint x="90" y="190" as="sourcePoint"/>
                        <mxPoint x="90" y="110" as="targetPoint"/>
                        <Array as="points">
                            <mxPoint x="90" y="150"/>
                        </Array>
                    </mxGeometry>
                </mxCell>
                <mxCell id="7" value="" style="endArrow=classic;html=1;" parent="1" edge="1">
                    <mxGeometry width="50" height="50" relative="1" as="geometry">
                        <mxPoint x="90" y="190" as="sourcePoint"/>
                        <mxPoint x="230" y="190" as="targetPoint"/>
                    </mxGeometry>
                </mxCell>
                <mxCell id="11" value="dyn" style="rounded=0;whiteSpace=wrap;html=1;fillColor=#f5f5f5;fontColor=#333333;strokeColor=#666666;gradientDirection=radial;" parent="1" vertex="1">
                    <mxGeometry x="100" y="140" width="30" height="40" as="geometry"/>
                </mxCell>
                <mxCell id="12" value="leak" style="rounded=0;whiteSpace=wrap;html=1;fillColor=#f5f5f5;fontColor=#333333;strokeColor=#666666;" parent="1" vertex="1">
                    <mxGeometry x="100" y="180" width="30" height="10" as="geometry"/>
                </mxCell>
                <mxCell id="13" value="E" style="text;html=1;align=center;verticalAlign=middle;resizable=0;points=[];autosize=1;strokeColor=none;fillColor=none;" parent="1" vertex="1">
                    <mxGeometry x="105" y="100" width="20" height="20" as="geometry"/>
                </mxCell>
                <mxCell id="14" value="" style="rounded=0;whiteSpace=wrap;html=1;fillColor=#fff2cc;strokeColor=#d6b656;" parent="1" vertex="1">
                    <mxGeometry x="140" y="150" width="30" height="40" as="geometry"/>
                </mxCell>
                <mxCell id="16" value="t" style="text;html=1;align=center;verticalAlign=middle;resizable=0;points=[];autosize=1;strokeColor=none;fillColor=none;" parent="1" vertex="1">
                    <mxGeometry x="145" y="100" width="20" height="20" as="geometry"/>
                </mxCell>
                <mxCell id="17" value="" style="rounded=0;whiteSpace=wrap;html=1;fillColor=#dae8fc;strokeColor=#6c8ebf;" parent="1" vertex="1">
                    <mxGeometry x="185" y="120" width="30" height="70" as="geometry"/>
                </mxCell>
                <mxCell id="18" value="CYC" style="text;html=1;align=center;verticalAlign=middle;resizable=0;points=[];autosize=1;strokeColor=none;fillColor=none;" parent="1" vertex="1">
                    <mxGeometry x="180" y="100" width="40" height="20" as="geometry"/>
                </mxCell>
                <mxCell id="19" value="Scalable" style="text;html=1;align=center;verticalAlign=middle;resizable=0;points=[];autosize=1;strokeColor=none;fillColor=none;" parent="1" vertex="1">
                    <mxGeometry x="5" y="140" width="60" height="20" as="geometry"/>
                </mxCell>
                <mxCell id="20" value="" style="endArrow=classic;html=1;" parent="1" edge="1">
                    <mxGeometry width="50" height="50" relative="1" as="geometry">
                        <mxPoint x="260" y="189.6" as="sourcePoint"/>
                        <mxPoint x="260" y="109.6" as="targetPoint"/>
                        <Array as="points">
                            <mxPoint x="260" y="149.6"/>
                        </Array>
                    </mxGeometry>
                </mxCell>
                <mxCell id="21" value="" style="endArrow=classic;html=1;" parent="1" edge="1">
                    <mxGeometry width="50" height="50" relative="1" as="geometry">
                        <mxPoint x="260" y="189.6" as="sourcePoint"/>
                        <mxPoint x="400" y="189.6" as="targetPoint"/>
                    </mxGeometry>
                </mxCell>
                <mxCell id="22" value="dyn" style="rounded=0;whiteSpace=wrap;html=1;fillColor=#f5f5f5;fontColor=#333333;strokeColor=#666666;" parent="1" vertex="1">
                    <mxGeometry x="270" y="130" width="30" height="40" as="geometry"/>
                </mxCell>
                <mxCell id="24" value="E" style="text;html=1;align=center;verticalAlign=middle;resizable=0;points=[];autosize=1;strokeColor=none;fillColor=none;" parent="1" vertex="1">
                    <mxGeometry x="275" y="99.6" width="20" height="20" as="geometry"/>
                </mxCell>
                <mxCell id="25" value="" style="rounded=0;whiteSpace=wrap;html=1;fillColor=#fff2cc;strokeColor=#d6b656;" parent="1" vertex="1">
                    <mxGeometry x="310" y="130" width="30" height="59.6" as="geometry"/>
                </mxCell>
                <mxCell id="26" value="t" style="text;html=1;align=center;verticalAlign=middle;resizable=0;points=[];autosize=1;strokeColor=none;fillColor=none;" parent="1" vertex="1">
                    <mxGeometry x="315" y="99.6" width="20" height="20" as="geometry"/>
                </mxCell>
                <mxCell id="27" value="" style="rounded=0;whiteSpace=wrap;html=1;fillColor=#dae8fc;strokeColor=#6c8ebf;" parent="1" vertex="1">
                    <mxGeometry x="355" y="119.6" width="30" height="70" as="geometry"/>
                </mxCell>
                <mxCell id="28" value="CYC" style="text;html=1;align=center;verticalAlign=middle;resizable=0;points=[];autosize=1;strokeColor=none;fillColor=none;" parent="1" vertex="1">
                    <mxGeometry x="350" y="99.6" width="40" height="20" as="geometry"/>
                </mxCell>
                <mxCell id="29" value="" style="endArrow=classic;html=1;" parent="1" edge="1">
                    <mxGeometry width="50" height="50" relative="1" as="geometry">
                        <mxPoint x="90" y="290.4" as="sourcePoint"/>
                        <mxPoint x="90" y="210.4" as="targetPoint"/>
                        <Array as="points">
                            <mxPoint x="90" y="250.4"/>
                        </Array>
                    </mxGeometry>
                </mxCell>
                <mxCell id="30" value="" style="endArrow=classic;html=1;" parent="1" edge="1">
                    <mxGeometry width="50" height="50" relative="1" as="geometry">
                        <mxPoint x="90" y="290.4" as="sourcePoint"/>
                        <mxPoint x="230" y="290.4" as="targetPoint"/>
                    </mxGeometry>
                </mxCell>
                <mxCell id="31" value="dyn" style="rounded=0;whiteSpace=wrap;html=1;fillColor=#f5f5f5;fontColor=#333333;strokeColor=#666666;" parent="1" vertex="1">
                    <mxGeometry x="100" y="240.4" width="30" height="40" as="geometry"/>
                </mxCell>
                <mxCell id="32" value="leak" style="rounded=0;whiteSpace=wrap;html=1;fillColor=#f5f5f5;fontColor=#333333;strokeColor=#666666;" parent="1" vertex="1">
                    <mxGeometry x="100" y="280.4" width="30" height="10" as="geometry"/>
                </mxCell>
                <mxCell id="33" value="" style="rounded=0;whiteSpace=wrap;html=1;fillColor=#fff2cc;strokeColor=#d6b656;" parent="1" vertex="1">
                    <mxGeometry x="140" y="250.4" width="30" height="40" as="geometry"/>
                </mxCell>
                <mxCell id="34" value="" style="rounded=0;whiteSpace=wrap;html=1;fillColor=#dae8fc;strokeColor=#6c8ebf;" parent="1" vertex="1">
                    <mxGeometry x="185" y="220.4" width="30" height="70" as="geometry"/>
                </mxCell>
                <mxCell id="36" value="" style="endArrow=classic;html=1;" parent="1" edge="1">
                    <mxGeometry width="50" height="50" relative="1" as="geometry">
                        <mxPoint x="260" y="290" as="sourcePoint"/>
                        <mxPoint x="260" y="210.00000000000003" as="targetPoint"/>
                        <Array as="points">
                            <mxPoint x="260" y="250"/>
                        </Array>
                    </mxGeometry>
                </mxCell>
                <mxCell id="37" value="" style="endArrow=classic;html=1;" parent="1" edge="1">
                    <mxGeometry width="50" height="50" relative="1" as="geometry">
                        <mxPoint x="260" y="290" as="sourcePoint"/>
                        <mxPoint x="400.0000000000001" y="290" as="targetPoint"/>
                    </mxGeometry>
                </mxCell>
                <mxCell id="38" value="dyn" style="rounded=0;whiteSpace=wrap;html=1;fillColor=#f5f5f5;fontColor=#333333;strokeColor=#666666;" parent="1" vertex="1">
                    <mxGeometry x="270" y="250" width="30" height="28" as="geometry"/>
                </mxCell>
                <mxCell id="39" value="leak" style="rounded=0;whiteSpace=wrap;html=1;fillColor=#f5f5f5;fontColor=#333333;strokeColor=#666666;" parent="1" vertex="1">
                    <mxGeometry x="270" y="278" width="30" height="12" as="geometry"/>
                </mxCell>
                <mxCell id="40" value="" style="rounded=0;whiteSpace=wrap;html=1;fillColor=#fff2cc;strokeColor=#d6b656;" parent="1" vertex="1">
                    <mxGeometry x="310" y="250" width="30" height="40" as="geometry"/>
                </mxCell>
                <mxCell id="41" value="" style="rounded=0;whiteSpace=wrap;html=1;fillColor=#dae8fc;strokeColor=#6c8ebf;" parent="1" vertex="1">
                    <mxGeometry x="355" y="231" width="30" height="59" as="geometry"/>
                </mxCell>
                <mxCell id="42" value="Bottleneck" style="text;html=1;align=center;verticalAlign=middle;resizable=0;points=[];autosize=1;strokeColor=none;fillColor=none;" parent="1" vertex="1">
                    <mxGeometry x="5" y="245" width="70" height="20" as="geometry"/>
                </mxCell>
                <mxCell id="43" value="E" style="text;html=1;align=center;verticalAlign=middle;resizable=0;points=[];autosize=1;strokeColor=none;fillColor=none;" parent="1" vertex="1">
                    <mxGeometry x="100" y="200.4" width="20" height="20" as="geometry"/>
                </mxCell>
                <mxCell id="44" value="t" style="text;html=1;align=center;verticalAlign=middle;resizable=0;points=[];autosize=1;strokeColor=none;fillColor=none;" parent="1" vertex="1">
                    <mxGeometry x="140" y="200.4" width="20" height="20" as="geometry"/>
                </mxCell>
                <mxCell id="45" value="CYC" style="text;html=1;align=center;verticalAlign=middle;resizable=0;points=[];autosize=1;strokeColor=none;fillColor=none;" parent="1" vertex="1">
                    <mxGeometry x="175" y="200.4" width="40" height="20" as="geometry"/>
                </mxCell>
                <mxCell id="46" value="E" style="text;html=1;align=center;verticalAlign=middle;resizable=0;points=[];autosize=1;strokeColor=none;fillColor=none;" parent="1" vertex="1">
                    <mxGeometry x="270" y="200" width="20" height="20" as="geometry"/>
                </mxCell>
                <mxCell id="47" value="t" style="text;html=1;align=center;verticalAlign=middle;resizable=0;points=[];autosize=1;strokeColor=none;fillColor=none;" parent="1" vertex="1">
                    <mxGeometry x="310" y="200" width="20" height="20" as="geometry"/>
                </mxCell>
                <mxCell id="48" value="CYC" style="text;html=1;align=center;verticalAlign=middle;resizable=0;points=[];autosize=1;strokeColor=none;fillColor=none;" parent="1" vertex="1">
                    <mxGeometry x="345" y="200" width="40" height="20" as="geometry"/>
                </mxCell>
                <mxCell id="49" value="" style="whiteSpace=wrap;html=1;fillColor=#f8cecc;strokeColor=none;opacity=60;" parent="1" vertex="1">
                    <mxGeometry x="310" y="130" width="30" height="20" as="geometry"/>
                </mxCell>
                <mxCell id="51" value="" style="rounded=0;whiteSpace=wrap;html=1;fillColor=#f8cecc;strokeColor=none;opacity=70;" parent="1" vertex="1">
                    <mxGeometry x="270" y="170" width="30" height="10" as="geometry"/>
                </mxCell>
                <mxCell id="53" value="" style="whiteSpace=wrap;html=1;fillColor=#d5e8d4;strokeColor=none;opacity=60;" parent="1" vertex="1">
                    <mxGeometry x="355" y="220" width="30" height="11" as="geometry"/>
                </mxCell>
                <mxCell id="54" value="" style="whiteSpace=wrap;html=1;fillColor=#d5e8d4;strokeColor=none;opacity=60;" parent="1" vertex="1">
                    <mxGeometry x="270" y="240" width="30" height="10" as="geometry"/>
                </mxCell>
                <mxCell id="56" value="" style="endArrow=none;dashed=1;html=1;dashPattern=1 3;strokeWidth=2;" parent="1" edge="1">
                    <mxGeometry width="50" height="50" relative="1" as="geometry">
                        <mxPoint x="540" y="200" as="sourcePoint"/>
                        <mxPoint y="200" as="targetPoint"/>
                        <Array as="points"/>
                    </mxGeometry>
                </mxCell>
                <mxCell id="57" value="Register/ RAM intensive workloads" style="rounded=1;whiteSpace=wrap;html=1;strokeColor=default;fillColor=default;gradientColor=#ffffff;opacity=60;" parent="1" vertex="1">
                    <mxGeometry x="414" y="137.5" width="120" height="35" as="geometry"/>
                </mxCell>
                <mxCell id="59" value="Slow peripherals, I/O, asynchronous interactions" style="rounded=1;whiteSpace=wrap;html=1;strokeColor=default;fillColor=default;gradientColor=#ffffff;opacity=60;" parent="1" vertex="1">
                    <mxGeometry x="414" y="231" width="120" height="49" as="geometry"/>
                </mxCell>
                <mxCell id="83" value="" style="group" parent="1" vertex="1" connectable="0">
                    <mxGeometry x="-30" y="-54.08" width="673.5050000000001" height="124.08" as="geometry"/>
                </mxCell>
                <mxCell id="77" value="" style="whiteSpace=wrap;html=1;fontSize=20;strokeColor=#d6b656;fillColor=#fff2cc;gradientDirection=radial;opacity=60;" parent="83" vertex="1">
                    <mxGeometry y="70.04" width="110" height="49.96" as="geometry"/>
                </mxCell>
                <mxCell id="76" value="" style="whiteSpace=wrap;html=1;fontSize=20;strokeColor=#d79b00;fillColor=#ffe6cc;gradientDirection=radial;opacity=60;" parent="83" vertex="1">
                    <mxGeometry x="610" y="70.03999999999999" width="60" height="49.96" as="geometry"/>
                </mxCell>
                <mxCell id="75" value="" style="whiteSpace=wrap;html=1;fontSize=20;strokeColor=#6c8ebf;fillColor=#dae8fc;gradientDirection=radial;opacity=60;" parent="83" vertex="1">
                    <mxGeometry x="295" y="81" width="50" height="20" as="geometry"/>
                </mxCell>
                <mxCell id="62" value="&lt;font style=&quot;font-size: 20px&quot;&gt;E&lt;sub style=&quot;font-size: 20px&quot;&gt;total&lt;/sub&gt;&amp;nbsp;=&amp;nbsp; α · C · CYC ·&amp;nbsp;V&lt;sup style=&quot;font-size: 20px&quot;&gt;2&lt;/sup&gt;&amp;nbsp; &amp;nbsp;+&amp;nbsp; V · I&lt;sub style=&quot;font-size: 20px&quot;&gt;leak&lt;/sub&gt;&amp;nbsp;· N ·k&lt;sub style=&quot;font-size: 20px&quot;&gt;design&lt;/sub&gt;&amp;nbsp;·&amp;nbsp;&lt;/font&gt;" style="text;html=1;align=center;verticalAlign=middle;resizable=0;points=[];autosize=1;strokeColor=none;fillColor=none;fontFamily=Lucida Console;fontSize=20;" parent="83" vertex="1">
                    <mxGeometry x="160" y="70.03999999999999" width="460" height="40" as="geometry"/>
                </mxCell>
                <mxCell id="63" value="" style="shape=curlyBracket;whiteSpace=wrap;html=1;rounded=1;fontFamily=Lucida Console;fontSize=30;rotation=90;size=0.5;" parent="83" vertex="1">
                    <mxGeometry x="297" y="-8" width="33" height="150" as="geometry"/>
                </mxCell>
                <mxCell id="64" value="" style="shape=curlyBracket;whiteSpace=wrap;html=1;rounded=1;fontFamily=Lucida Console;fontSize=30;rotation=90;size=0.5;" parent="83" vertex="1">
                    <mxGeometry x="523.87" y="-67.69999999999999" width="37.91" height="261.36" as="geometry"/>
                </mxCell>
                <mxCell id="65" value="&lt;font style=&quot;font-size: 20px&quot;&gt;P&lt;sub&gt;dyn&lt;/sub&gt;&lt;/font&gt;" style="text;html=1;align=center;verticalAlign=middle;resizable=0;points=[];autosize=1;strokeColor=none;fillColor=none;fontSize=30;fontFamily=Lucida Console;" parent="83" vertex="1">
                    <mxGeometry x="290" y="10" width="50" height="50" as="geometry"/>
                </mxCell>
                <mxCell id="66" value="&lt;font style=&quot;font-size: 20px&quot;&gt;P&lt;sub&gt;leak&lt;/sub&gt;&lt;/font&gt;" style="text;html=1;align=center;verticalAlign=middle;resizable=0;points=[];autosize=1;strokeColor=none;fillColor=none;fontSize=30;fontFamily=Lucida Console;" parent="83" vertex="1">
                    <mxGeometry x="490.93000000000006" width="50" height="50" as="geometry"/>
                </mxCell>
                <mxCell id="68" value="CYC" style="text;html=1;align=center;verticalAlign=middle;resizable=0;points=[];autosize=1;strokeColor=none;fillColor=none;fontSize=20;" parent="83" vertex="1">
                    <mxGeometry x="41" y="66" width="60" height="30" as="geometry"/>
                </mxCell>
                <mxCell id="69" value="f" style="text;html=1;align=center;verticalAlign=middle;resizable=0;points=[];autosize=1;strokeColor=none;fillColor=none;fontSize=20;" parent="83" vertex="1">
                    <mxGeometry x="60" y="90.03999999999999" width="20" height="30" as="geometry"/>
                </mxCell>
                <mxCell id="70" value="" style="endArrow=none;html=1;fontSize=20;" parent="83" edge="1">
                    <mxGeometry width="50" height="50" relative="1" as="geometry">
                        <mxPoint x="43" y="91.03999999999999" as="sourcePoint"/>
                        <mxPoint x="103" y="91.03999999999999" as="targetPoint"/>
                    </mxGeometry>
                </mxCell>
                <mxCell id="71" value="t =" style="text;html=1;align=center;verticalAlign=middle;resizable=0;points=[];autosize=1;strokeColor=none;fillColor=none;fontSize=20;" parent="83" vertex="1">
                    <mxGeometry y="75.04" width="40" height="30" as="geometry"/>
                </mxCell>
                <mxCell id="74" value="" style="shape=flexArrow;endArrow=classic;html=1;fontSize=20;" parent="83" edge="1">
                    <mxGeometry width="50" height="50" relative="1" as="geometry">
                        <mxPoint x="116" y="94" as="sourcePoint"/>
                        <mxPoint x="156" y="94" as="targetPoint"/>
                    </mxGeometry>
                </mxCell>
                <mxCell id="79" value="CYC" style="text;html=1;align=center;verticalAlign=middle;resizable=0;points=[];autosize=1;strokeColor=none;fillColor=none;fontSize=20;" parent="83" vertex="1">
                    <mxGeometry x="610" y="70.03999999999999" width="60" height="30" as="geometry"/>
                </mxCell>
                <mxCell id="80" value="f" style="text;html=1;align=center;verticalAlign=middle;resizable=0;points=[];autosize=1;strokeColor=none;fillColor=none;fontSize=20;" parent="83" vertex="1">
                    <mxGeometry x="629" y="94.08" width="20" height="30" as="geometry"/>
                </mxCell>
                <mxCell id="81" value="" style="endArrow=none;html=1;fontSize=20;" parent="83" edge="1">
                    <mxGeometry width="50" height="50" relative="1" as="geometry">
                        <mxPoint x="612" y="95.07999999999996" as="sourcePoint"/>
                        <mxPoint x="672" y="95.07999999999996" as="targetPoint"/>
                    </mxGeometry>
                </mxCell>
            </root>
        </mxGraphModel>
    </diagram>
</mxfile>